<svg xmlns="http://www.w3.org/2000/svg" xmlns:xlink="http://www.w3.org/1999/xlink" width="200" zoomAndPan="magnify" viewBox="0 0 150 149.999998" height="200" preserveAspectRatio="xMidYMid meet" version="1.2"><defs><clipPath id="44178f1a2a"><path d="M 6.757812 10.972656 L 143.257812 10.972656 L 143.257812 36 L 6.757812 36 Z M 6.757812 10.972656 "/></clipPath><clipPath id="d59cb0e3a9"><path d="M 6.757812 60 L 143.257812 60 L 143.257812 86 L 6.757812 86 Z M 6.757812 60 "/></clipPath><clipPath id="6443bd461f"><path d="M 6.757812 109 L 143.257812 109 L 143.257812 134.722656 L 6.757812 134.722656 Z M 6.757812 109 "/></clipPath></defs><g id="effe7eeb26"><g clip-rule="nonzero" clip-path="url(#44178f1a2a)"><path style=" stroke:none;fill-rule:nonzero;fill:#000000;fill-opacity:1;" d="M 19.191406 35.722656 L 130.828125 35.722656 C 131.640625 35.722656 132.449219 35.640625 133.246094 35.484375 C 134.046875 35.324219 134.820312 35.089844 135.574219 34.78125 C 136.328125 34.46875 137.042969 34.085938 137.71875 33.636719 C 138.394531 33.183594 139.023438 32.671875 139.597656 32.097656 C 140.175781 31.523438 140.6875 30.898438 141.140625 30.222656 C 141.59375 29.546875 141.976562 28.832031 142.285156 28.082031 C 142.597656 27.332031 142.832031 26.558594 142.992188 25.761719 C 143.152344 24.964844 143.230469 24.160156 143.230469 23.347656 C 143.230469 22.535156 143.152344 21.730469 142.992188 20.933594 C 142.832031 20.136719 142.597656 19.363281 142.285156 18.609375 C 141.976562 17.859375 141.59375 17.148438 141.140625 16.472656 C 140.6875 15.796875 140.175781 15.171875 139.597656 14.597656 C 139.023438 14.023438 138.394531 13.507812 137.71875 13.058594 C 137.042969 12.605469 136.328125 12.222656 135.574219 11.914062 C 134.820312 11.601562 134.046875 11.367188 133.246094 11.210938 C 132.449219 11.050781 131.640625 10.972656 130.828125 10.972656 L 19.191406 10.972656 C 18.375 10.972656 17.570312 11.050781 16.769531 11.210938 C 15.972656 11.367188 15.195312 11.601562 14.445312 11.914062 C 13.691406 12.222656 12.976562 12.605469 12.300781 13.058594 C 11.621094 13.507812 10.996094 14.023438 10.417969 14.597656 C 9.84375 15.171875 9.328125 15.796875 8.875 16.472656 C 8.425781 17.148438 8.042969 17.859375 7.730469 18.609375 C 7.417969 19.363281 7.183594 20.136719 7.023438 20.933594 C 6.867188 21.730469 6.785156 22.535156 6.785156 23.347656 C 6.785156 24.160156 6.867188 24.964844 7.023438 25.761719 C 7.183594 26.558594 7.417969 27.332031 7.730469 28.082031 C 8.042969 28.832031 8.425781 29.546875 8.875 30.222656 C 9.328125 30.898438 9.84375 31.523438 10.417969 32.097656 C 10.996094 32.671875 11.621094 33.183594 12.300781 33.636719 C 12.976562 34.085938 13.691406 34.46875 14.445312 34.78125 C 15.195312 35.089844 15.972656 35.324219 16.769531 35.484375 C 17.570312 35.640625 18.375 35.722656 19.191406 35.722656 Z M 19.191406 35.722656 "/></g><g clip-rule="nonzero" clip-path="url(#d59cb0e3a9)"><path style=" stroke:none;fill-rule:nonzero;fill:#000000;fill-opacity:1;" d="M 130.828125 60.472656 L 19.191406 60.472656 C 18.375 60.472656 17.570312 60.550781 16.769531 60.710938 C 15.972656 60.867188 15.195312 61.101562 14.445312 61.414062 C 13.691406 61.722656 12.976562 62.105469 12.300781 62.558594 C 11.621094 63.007812 10.996094 63.523438 10.417969 64.097656 C 9.84375 64.671875 9.328125 65.296875 8.875 65.972656 C 8.425781 66.648438 8.042969 67.359375 7.730469 68.109375 C 7.417969 68.863281 7.183594 69.636719 7.023438 70.433594 C 6.867188 71.230469 6.785156 72.035156 6.785156 72.847656 C 6.785156 73.660156 6.867188 74.464844 7.023438 75.261719 C 7.183594 76.058594 7.417969 76.832031 7.730469 77.582031 C 8.042969 78.332031 8.425781 79.046875 8.875 79.722656 C 9.328125 80.398438 9.84375 81.023438 10.417969 81.597656 C 10.996094 82.171875 11.621094 82.683594 12.300781 83.136719 C 12.976562 83.585938 13.691406 83.96875 14.445312 84.28125 C 15.195312 84.589844 15.972656 84.824219 16.769531 84.984375 C 17.570312 85.140625 18.375 85.222656 19.191406 85.222656 L 130.828125 85.222656 C 131.640625 85.222656 132.449219 85.140625 133.246094 84.984375 C 134.046875 84.824219 134.820312 84.589844 135.574219 84.28125 C 136.328125 83.96875 137.042969 83.585938 137.71875 83.136719 C 138.394531 82.683594 139.023438 82.171875 139.597656 81.597656 C 140.175781 81.023438 140.6875 80.398438 141.140625 79.722656 C 141.59375 79.046875 141.976562 78.332031 142.285156 77.582031 C 142.597656 76.832031 142.832031 76.058594 142.992188 75.261719 C 143.152344 74.464844 143.230469 73.660156 143.230469 72.847656 C 143.230469 72.035156 143.152344 71.230469 142.992188 70.433594 C 142.832031 69.636719 142.597656 68.863281 142.285156 68.109375 C 141.976562 67.359375 141.59375 66.648438 141.140625 65.972656 C 140.6875 65.296875 140.175781 64.671875 139.597656 64.097656 C 139.023438 63.523438 138.394531 63.007812 137.71875 62.558594 C 137.042969 62.105469 136.328125 61.722656 135.574219 61.414062 C 134.820312 61.101562 134.046875 60.867188 133.246094 60.710938 C 132.449219 60.550781 131.640625 60.472656 130.828125 60.472656 Z M 130.828125 60.472656 "/></g><g clip-rule="nonzero" clip-path="url(#6443bd461f)"><path style=" stroke:none;fill-rule:nonzero;fill:#000000;fill-opacity:1;" d="M 130.828125 109.972656 L 19.191406 109.972656 C 18.375 109.972656 17.570312 110.050781 16.769531 110.210938 C 15.972656 110.367188 15.195312 110.601562 14.445312 110.914062 C 13.691406 111.222656 12.976562 111.605469 12.300781 112.058594 C 11.621094 112.507812 10.996094 113.023438 10.417969 113.597656 C 9.84375 114.171875 9.328125 114.796875 8.875 115.472656 C 8.425781 116.148438 8.042969 116.859375 7.730469 117.609375 C 7.417969 118.363281 7.183594 119.136719 7.023438 119.933594 C 6.867188 120.730469 6.785156 121.535156 6.785156 122.347656 C 6.785156 123.160156 6.867188 123.964844 7.023438 124.761719 C 7.183594 125.558594 7.417969 126.332031 7.730469 127.082031 C 8.042969 127.832031 8.425781 128.546875 8.875 129.222656 C 9.328125 129.898438 9.84375 130.523438 10.417969 131.097656 C 10.996094 131.671875 11.621094 132.183594 12.300781 132.636719 C 12.976562 133.085938 13.691406 133.46875 14.445312 133.78125 C 15.195312 134.089844 15.972656 134.324219 16.769531 134.484375 C 17.570312 134.640625 18.375 134.722656 19.191406 134.722656 L 130.828125 134.722656 C 131.640625 134.722656 132.449219 134.640625 133.246094 134.484375 C 134.046875 134.324219 134.820312 134.089844 135.574219 133.78125 C 136.328125 133.46875 137.042969 133.085938 137.71875 132.636719 C 138.394531 132.183594 139.023438 131.671875 139.597656 131.097656 C 140.175781 130.523438 140.6875 129.898438 141.140625 129.222656 C 141.59375 128.546875 141.976562 127.832031 142.285156 127.082031 C 142.597656 126.332031 142.832031 125.558594 142.992188 124.761719 C 143.152344 123.964844 143.230469 123.160156 143.230469 122.347656 C 143.230469 121.535156 143.152344 120.730469 142.992188 119.933594 C 142.832031 119.136719 142.597656 118.363281 142.285156 117.609375 C 141.976562 116.859375 141.59375 116.148438 141.140625 115.472656 C 140.6875 114.796875 140.175781 114.171875 139.597656 113.597656 C 139.023438 113.023438 138.394531 112.507812 137.71875 112.058594 C 137.042969 111.605469 136.328125 111.222656 135.574219 110.914062 C 134.820312 110.601562 134.046875 110.367188 133.246094 110.210938 C 132.449219 110.050781 131.640625 109.972656 130.828125 109.972656 Z M 130.828125 109.972656 "/></g></g></svg>